<?xml version="1.0" encoding="utf-8"?>
<!-- Generator: Adobe Illustrator 23.1.0, SVG Export Plug-In . SVG Version: 6.00 Build 0)  -->
<svg version="1.1" id="Layer_1" xmlns="http://www.w3.org/2000/svg" xmlns:xlink="http://www.w3.org/1999/xlink" x="0px" y="0px"
	 viewBox="0 0 100 100" style="enable-background:new 0 0 100 100;" xml:space="preserve">
<g>
	<path d="M68.71,43.63H56.18V31.1c0-1.85-1.5-3.35-3.35-3.35h-5.65c-1.85,0-3.35,1.5-3.35,3.35v12.53H31.29
		c-1.85,0-3.35,1.5-3.35,3.35v5.65c0,1.85,1.5,3.35,3.35,3.35h12.53v12.53c0,1.85,1.5,3.35,3.35,3.35h5.65
		c1.85,0,3.35-1.5,3.35-3.35V55.98h12.53c1.85,0,3.35-1.5,3.35-3.35v-5.65C72.06,45.13,70.56,43.63,68.71,43.63z"/>
	<path d="M50,0C22.39,0,0,22.39,0,50s22.39,50,50,50s50-22.39,50-50S77.61,0,50,0z M50,90.88C27.42,90.88,9.12,72.58,9.12,50
		S27.42,9.12,50,9.12S90.88,27.42,90.88,50S72.58,90.88,50,90.88z"/>
</g>
</svg>
