<svg xmlns="http://www.w3.org/2000/svg" viewBox="0 0 99 99"><defs><style>.cls-1{fill:#fff;}</style></defs><title>app</title><g id="Layer_2" data-name="Layer 2"><g id="Layer_1-2" data-name="Layer 1"><rect width="99" height="99" rx="10.06"/><path class="cls-1" d="M66.89,48.9H42V47s-.89-9.54,10.3-6.75a2.89,2.89,0,0,0,2.4-.47A2.81,2.81,0,0,0,54,34.86c-6-2.17-17.26-.8-17.26,11v3H31.63a2.17,2.17,0,0,0-2.17,2.17V66.53a2.17,2.17,0,0,0,2.17,2.17H66.89a2.17,2.17,0,0,0,2.17-2.17V51.07A2.17,2.17,0,0,0,66.89,48.9ZM64.23,64.11H34.29V53.48H64.23Z"/><rect class="cls-1" x="9.66" y="9.18" width="15.45" height="5.31" rx="2.66"/><rect class="cls-1" x="29.46" y="9.18" width="15.45" height="5.31" rx="2.66"/></g></g></svg>