<?xml version="1.0" encoding="utf-8"?>
<!-- Generator: Adobe Illustrator 23.1.0, SVG Export Plug-In . SVG Version: 6.00 Build 0)  -->
<svg version="1.1" id="Layer_1" xmlns="http://www.w3.org/2000/svg" xmlns:xlink="http://www.w3.org/1999/xlink" x="0px" y="0px"
	 viewBox="0 0 225 225" style="enable-background:new 0 0 225 225;" xml:space="preserve">
<style type="text/css">
	.st0{fill:#EB573F;}
	.st1{fill:#DF4353;}
	.st2{fill:#444A54;}
	.st3{fill:#A8B1BD;}
	.st4{fill:#F5BA3F;}
</style>
<g>
	<path class="st0" d="M194.09,91.27l27.19-7.21c-4.91-18.57-14.44-35.27-27.31-48.77l-20.36,19.4
		C183.26,64.82,190.41,77.34,194.09,91.27z"/>
	<path class="st1" d="M206.23,175.14c11.87-17.83,18.79-39.23,18.79-62.25c0-9.96-1.3-19.62-3.73-28.82l-27.19,7.21
		c1.82,6.9,2.8,14.14,2.8,21.62c0,17.7-5.45,34.12-14.76,47.68c-4.85,7.07-10.75,13.36-17.47,18.65l17.38,22.11
		C191.41,193.94,199.6,185.1,206.23,175.14z"/>
	<path class="st2" d="M112.52,197.26c-11.1,0-21.69-2.15-31.4-6.05l-10.47,26.11c12.94,5.19,27.07,8.06,41.87,8.06
		c26.24,0,50.38-9,69.52-24.06l-17.38-22.11C150.31,190.52,132.2,197.26,112.52,197.26z"/>
	<path class="st3" d="M43.47,161.38c-9.65-13.72-15.33-30.44-15.33-48.5c0-9.1,1.44-17.87,4.11-26.08c0.01-0.02,0.01-0.04,0.02-0.06
		c3.83-11.74,10.15-22.36,18.36-31.21c3.01-3.24,6.26-6.25,9.74-8.99L42.99,24.44c-4.86,3.83-9.39,8.05-13.55,12.61
		C19.18,48.28,11.17,61.6,6.11,76.29c-0.01,0.02-0.01,0.04-0.02,0.06c-3.93,11.46-6.07,23.75-6.07,36.54
		c0,25.04,8.18,48.16,22.01,66.85c12.32,16.64,29.12,29.76,48.62,37.59l10.47-26.11C65.86,185.09,52.8,174.65,43.47,161.38z"/>
	<path class="st4" d="M60.4,46.53c14.34-11.28,32.43-18.01,52.1-18.02c0.01,0,0.01,0,0.02,0c24.04,0,45.73,10.05,61.09,26.18
		l20.36-19.4c-20.49-21.5-49.4-34.9-81.44-34.91c-0.01,0-0.02,0-0.02,0c-13.45,0-26.34,2.36-38.3,6.69
		c-10.58,3.83-20.42,9.2-29.25,15.84c-0.67,0.5-1.32,1.01-1.98,1.52l17.38,22.11C60.38,46.55,60.39,46.54,60.4,46.53z"/>
</g>
</svg>
