<?xml version="1.0" encoding="utf-8"?>
<!-- Generator: Adobe Illustrator 23.1.0, SVG Export Plug-In . SVG Version: 6.00 Build 0)  -->
<svg version="1.1" id="Layer_1" xmlns="http://www.w3.org/2000/svg" xmlns:xlink="http://www.w3.org/1999/xlink" x="0px" y="0px"
	 viewBox="0 0 205 205" style="enable-background:new 0 0 205 205;" xml:space="preserve">
<style type="text/css">
	.st0{fill:#A8B1BD;}
	.st1{fill:#F5BA3F;}
	.st2{fill:#00A3EF;}
	.st3{fill:#DF4353;}
</style>
<g>
	<path class="st0" d="M102.5,179.38c-10.11,0-19.77-1.96-28.61-5.51c-6.9-2.77-13.31-6.51-19.06-11.06l-16.05,19.97
		c7.7,6.12,16.29,11.16,25.57,14.89c11.79,4.73,24.66,7.34,38.15,7.34c9.06,0,17.85-1.18,26.22-3.39l-6.32-24.84
		C116.05,178.47,109.38,179.38,102.5,179.38z"/>
	<path class="st1" d="M177.69,86.5c1.09,5.16,1.68,10.51,1.68,16c0,16.12-4.97,31.08-13.45,43.44c-4.42,6.44-9.8,12.17-15.92,16.99
		c-8.06,6.34-17.42,11.11-27.61,13.84l6.32,24.84c13.71-3.62,26.29-10.01,37.12-18.53c8.55-6.73,16-14.78,22.05-23.86
		C198.69,142.98,205,123.48,205,102.5c0-7.35-0.79-14.52-2.26-21.43L177.69,86.5z"/>
	<path class="st2" d="M39.59,146.68c-8.8-12.5-13.96-27.74-13.96-44.18c0-8.29,1.32-16.28,3.75-23.76c0.01-0.02,0.01-0.04,0.02-0.05
		c3.49-10.7,9.25-20.37,16.73-28.44c2.74-2.95,5.7-5.7,8.87-8.19c0.01-0.01,0.02-0.01,0.02-0.02
		c13.07-10.28,29.55-16.41,47.47-16.42c0.01,0,0.01,0,0.02,0c0.05,0,0.1,0,0.14,0V0c-0.04,0-0.08,0-0.12,0c-0.01,0-0.01,0-0.02,0
		c-12.25,0-24,2.15-34.89,6.09C57.97,9.58,49,14.47,40.96,20.53c-0.61,0.46-1.21,0.92-1.8,1.39c-4.43,3.49-8.55,7.33-12.35,11.49
		C17.46,43.63,10.16,55.77,5.55,69.16c-0.01,0.02-0.01,0.03-0.02,0.05C1.95,79.65,0,90.85,0,102.5c0,22.81,7.46,43.88,20.06,60.91
		c5.37,7.25,11.67,13.76,18.73,19.36l16.05-19.97C49.01,158.2,43.87,152.77,39.59,146.68z"/>
	<path class="st3" d="M158.16,49.48c8.79,9.22,15.3,20.63,18.66,33.33c0.32,1.22,0.61,2.46,0.87,3.7l25.04-5.44
		c-0.35-1.62-0.72-3.23-1.14-4.83c-4.47-16.92-13.16-32.13-24.88-44.43C158.08,12.24,131.79,0.04,102.64,0v25.63
		C124.49,25.67,144.19,34.82,158.16,49.48z"/>
</g>
</svg>
