<svg xmlns="http://www.w3.org/2000/svg" viewBox="0 0 101 101.2"><title>cluster</title><g id="Layer_2" data-name="Layer 2"><g id="Layer_1-2" data-name="Layer 1"><path d="M88.55,76.1a12.42,12.42,0,0,0-5.67,1.36l-6-7.32a18.86,18.86,0,0,0-2.14-27.79L85.5,24.53a12.8,12.8,0,0,0,3,.37,12.44,12.44,0,1,0-8.64-3.48L69.14,39.31a19.13,19.13,0,0,0-6-1,18.81,18.81,0,0,0-12.49,4.73L24,23.51A12.47,12.47,0,1,0,20.1,28.6L46.65,48.05a18.88,18.88,0,0,0-1.59,14.58L17.42,77.33a12.32,12.32,0,0,0-5-1,12.45,12.45,0,1,0,10.29,5.44L47.91,68.36A18.88,18.88,0,0,0,71.81,74l6.31,7.75A12.45,12.45,0,1,0,88.55,76.1Z"/></g></g></svg>