<?xml version="1.0" encoding="utf-8"?>
<!-- Generator: Adobe Illustrator 23.1.0, SVG Export Plug-In . SVG Version: 6.00 Build 0)  -->
<svg version="1.1" id="Layer_1" xmlns="http://www.w3.org/2000/svg" xmlns:xlink="http://www.w3.org/1999/xlink" x="0px" y="0px"
	 viewBox="0 0 100 100" style="enable-background:new 0 0 100 100;" xml:space="preserve">
<style type="text/css">
	.st0{fill:#303030;}
</style>
<path class="st0" d="M87.71,75.2c-2.02,0-3.93,0.49-5.62,1.35l-5.91-7.24c3.14-3.34,5.07-7.83,5.07-12.77
	c0-5.97-2.81-11.28-7.18-14.7l10.63-17.61c0.97,0.24,1.98,0.37,3.02,0.37c6.81,0,12.33-5.51,12.33-12.3S94.52,0,87.71,0
	S75.38,5.51,75.38,12.3c0,3.48,1.45,6.62,3.78,8.86L68.48,38.85c-1.86-0.62-3.86-0.96-5.93-0.96c-4.74,0-9.07,1.76-12.37,4.67
	L23.75,23.23c0.59-1.44,0.92-3.02,0.92-4.67c0-6.8-5.52-12.3-12.33-12.3S0,11.76,0,18.55s5.52,12.3,12.33,12.3
	c2.86,0,5.49-0.97,7.58-2.6l26.29,19.22c-1.5,2.68-2.35,5.77-2.35,9.06c0,1.86,0.27,3.65,0.78,5.35L17.25,76.41
	c-1.51-0.65-3.17-1.02-4.92-1.02C5.52,75.39,0,80.9,0,87.7S5.52,100,12.33,100s12.33-5.51,12.33-12.3c0-2.57-0.79-4.95-2.14-6.93
	l24.93-13.22c3.4,4.63,8.9,7.65,15.09,7.65c3.09,0,6.01-0.75,8.57-2.07l6.26,7.66c-1.27,1.93-2.01,4.24-2.01,6.72
	c0,6.8,5.52,12.3,12.33,12.3s12.33-5.51,12.33-12.3S94.52,75.2,87.71,75.2z"/>
</svg>
