<?xml version="1.0" encoding="utf-8"?>
<!-- Generator: Adobe Illustrator 23.1.0, SVG Export Plug-In . SVG Version: 6.00 Build 0)  -->
<svg version="1.1" id="Layer_1" xmlns="http://www.w3.org/2000/svg" xmlns:xlink="http://www.w3.org/1999/xlink" x="0px" y="0px"
	 viewBox="0 0 360 360" style="enable-background:new 0 0 360 360;" xml:space="preserve">
<style type="text/css">
	.st0{fill:#E8E7E7;}
	.st1{fill:#EB3D51;}
	.st2{fill:#F9A21B;}
	.st3{fill:#2B1B1E;}
</style>
<circle class="st0" cx="166.6" cy="180.32" r="105"/>
<path class="st1" d="M166.6,180.32L84.56,321.7c-24.76-14.37-45.32-34.99-59.61-59.8S3.14,208.96,3.14,180.33L166.6,180.32z"/>
<path class="st2" d="M166.6,180.32l-135,0.01c0,0,0-0.01,0-0.01c0-74.06,60.94-135,135-135c0.21,0,0.42,0,0.63,0L166.6,180.32z"/>
<path class="st3" d="M166.6,180.32l0.28-189.83c104.03,0.15,189.56,85.8,189.56,189.83c0,104.14-85.69,189.83-189.83,189.83
	c-33.36,0-66.14-8.79-95.02-25.49L166.6,180.32z"/>
</svg>
