<?xml version="1.0" encoding="utf-8"?>
<!-- Generator: Adobe Illustrator 23.1.0, SVG Export Plug-In . SVG Version: 6.00 Build 0)  -->
<svg version="1.1" id="Layer_1" xmlns="http://www.w3.org/2000/svg" xmlns:xlink="http://www.w3.org/1999/xlink" x="0px" y="0px"
	 viewBox="0 0 100 100" style="enable-background:new 0 0 100 100;" xml:space="preserve">
<style type="text/css">
	.st0{fill:#303030;}
</style>
<g>
	<path class="st0" d="M40.31,14.05C18.01,15.76,0.45,34.4,0.45,57.13c0,23.93,19.27,43.21,43.21,43.21
		c22.74,0,41.37-17.56,43.08-39.86c0.14-1.8-1.28-3.35-3.09-3.35H43.65V17.14C43.65,15.33,42.11,13.91,40.31,14.05z"/>
	<path class="st0" d="M51.7,3.98v39.75c0,2.72,2.21,4.93,4.93,4.93h39.75c2.39,0,4.26-2.06,4.05-4.44
		C98.32,20.74,79.62,2.05,56.15-0.07C53.76-0.28,51.7,1.59,51.7,3.98z"/>
</g>
</svg>
