<?xml version="1.0" encoding="utf-8"?>
<!-- Generator: Adobe Illustrator 23.1.0, SVG Export Plug-In . SVG Version: 6.00 Build 0)  -->
<svg version="1.1" id="Layer_1" xmlns="http://www.w3.org/2000/svg" xmlns:xlink="http://www.w3.org/1999/xlink" x="0px" y="0px"
	 viewBox="0 0 100 100" style="enable-background:new 0 0 100 100;" xml:space="preserve">
<g>
	<g>
		<path d="M97.13,10.88c-1.96-0.42-3.89,0.83-4.31,2.79l-2.64,12.31C81.78,11.65,66.37,2.66,49.47,2.66
			c-26.02,0-47.19,21.17-47.19,47.19c0,2,1.62,3.63,3.63,3.63c2,0,3.63-1.63,3.63-3.63c0-22.02,17.91-39.93,39.93-39.93
			c14.35,0,27.45,7.67,34.53,19.87L71.9,27.2c-1.96-0.42-3.89,0.83-4.31,2.79c-0.42,1.96,0.83,3.89,2.79,4.31l20.77,4.45
			c0.35,0.08,0.71,0.1,1.06,0.07c0.59-0.05,1.16-0.24,1.67-0.57c0.81-0.52,1.38-1.35,1.58-2.29l4.45-20.77
			C100.34,13.23,99.09,11.3,97.13,10.88z"/>
		<path d="M93.48,45.09c-2,0.07-3.57,1.74-3.51,3.75c0.35,10.66-3.47,20.82-10.76,28.6c-7.29,7.79-17.17,12.27-27.83,12.62
			c-0.44,0.01-0.89,0.02-1.33,0.02c-13.91,0-26.72-7.22-33.96-18.93l12.62,3.38c1.94,0.52,3.93-0.63,4.45-2.57
			c0.52-1.94-0.63-3.93-2.57-4.45l-20.52-5.5c-0.93-0.25-1.92-0.12-2.75,0.36c-0.83,0.48-1.44,1.27-1.69,2.2l-5.5,20.52
			c-0.52,1.94,0.63,3.93,2.57,4.45c0.32,0.08,0.63,0.13,0.94,0.13c1.6,0,3.07-1.07,3.5-2.69l3.09-11.53
			C18.83,89,33.81,97.34,50.05,97.34c0.52,0,1.05-0.01,1.57-0.03C64.22,96.9,75.9,91.6,84.51,82.4s13.13-21.21,12.71-33.8
			C97.16,46.59,95.48,45.02,93.48,45.09z"/>
	</g>
</g>
</svg>
