<?xml version="1.0" encoding="utf-8"?>
<!-- Generator: Adobe Illustrator 23.1.0, SVG Export Plug-In . SVG Version: 6.00 Build 0)  -->
<svg version="1.1" id="Layer_1" xmlns="http://www.w3.org/2000/svg" xmlns:xlink="http://www.w3.org/1999/xlink" x="0px" y="0px"
	 viewBox="0 0 100 100" style="enable-background:new 0 0 100 100;" xml:space="preserve">
<g>
	<path d="M27.94,53.38v-7.15c0-1.44,1.17-2.6,2.6-2.6h38.91c1.44,0,2.6,1.17,2.6,2.6v7.15c0,1.44-1.17,2.6-2.6,2.6H30.54
		C29.11,55.98,27.94,54.82,27.94,53.38z"/>
	<path d="M50,0C22.39,0,0,22.39,0,50s22.39,50,50,50s50-22.39,50-50S77.61,0,50,0z M50,90.88C27.42,90.88,9.12,72.58,9.12,50
		S27.42,9.12,50,9.12S90.88,27.42,90.88,50S72.58,90.88,50,90.88z"/>
</g>
</svg>
