<svg xmlns="http://www.w3.org/2000/svg" viewBox="0 0 100 92.27"><title>resource</title><g id="Layer_2" data-name="Layer 2"><g id="Layer_1-2" data-name="Layer 1"><path d="M76.46,41.37h-52A6.53,6.53,0,0,0,17.9,47.9V59.3a6.53,6.53,0,0,0,6.53,6.54h52A6.53,6.53,0,0,0,83,59.3V47.9A6.53,6.53,0,0,0,76.46,41.37Zm.41,15.2a3.15,3.15,0,0,1-3.15,3.15H27.17A3.16,3.16,0,0,1,24,56.57V50.64a3.17,3.17,0,0,1,3.16-3.16H73.72a3.16,3.16,0,0,1,3.15,3.16Z"/><rect x="27.2" y="50.67" width="5.87" height="5.87" rx="2.23"/><path d="M76.46,67.8h-52a6.53,6.53,0,0,0-6.53,6.53v11.4a6.53,6.53,0,0,0,6.53,6.54h52A6.53,6.53,0,0,0,83,85.73V74.33A6.53,6.53,0,0,0,76.46,67.8ZM76.87,83a3.15,3.15,0,0,1-3.15,3.15H27.17A3.16,3.16,0,0,1,24,83V77.07a3.17,3.17,0,0,1,3.16-3.16H73.72a3.16,3.16,0,0,1,3.15,3.16Z"/><rect x="27.2" y="77.1" width="44.78" height="5.87" rx="2.23"/><path d="M99.88,37.7C97.92,12.74,71,17.63,71,17.63S65.13-.48,43.1,0,20.59,23.5,20.59,23.5-.95,23,0,47.48c0,0,1,15.18,17.62,18.11H79.81S101.83,62.66,99.88,37.7Zm-24.11,23H21C6.35,58.33,5.49,46.1,5.49,46.1,4.86,31.74,16.54,29.94,22.93,30a3.84,3.84,0,0,0,3.88-3.72C27,19.91,29.32,8.14,43.43,7.85c13.82-.28,20,9,22.34,14.39A4.78,4.78,0,0,0,71,25c7-1.27,21.2-1.91,22.49,13.18C95.18,58.33,75.77,60.69,75.77,60.69Z"/><rect x="28.42" y="64.13" width="6.36" height="5.87"/><rect x="66.11" y="64.13" width="5.87" height="5.87"/></g></g></svg>