<?xml version="1.0" encoding="utf-8"?>
<!-- Generator: Adobe Illustrator 23.1.0, SVG Export Plug-In . SVG Version: 6.00 Build 0)  -->
<svg version="1.1" id="Layer_1" xmlns="http://www.w3.org/2000/svg" xmlns:xlink="http://www.w3.org/1999/xlink" x="0px" y="0px"
	 viewBox="0 0 100 100" style="enable-background:new 0 0 100 100;" xml:space="preserve">
<g>
	<ellipse cx="35.91" cy="62.53" rx="14.43" ry="16"/>
	<path d="M19.89,53.56c0.02,0.02,0.05,0.04,0.07,0.06c0.14-0.28,0.28-0.56,0.43-0.84c-0.03-0.01-0.06-0.02-0.09-0.04
		c0.67-1.24,1.45-2.38,2.34-3.38c-2.33-1.79-5.16-2.84-8.21-2.84C6.46,46.53,0,53.69,0,62.53c0,8.83,6.46,16,14.43,16
		c3,0,5.79-1.02,8.1-2.75c-2.85-3.27-4.63-7.94-4.63-13.13C17.9,59.33,18.62,56.23,19.89,53.56z"/>
	<path d="M13.43,43.25c0.51-0.05,1.03-0.08,1.56-0.08c3.88,0,7.47,1.35,10.4,3.65c2.76-2.16,6.11-3.48,9.73-3.63
		c0.22-0.01,0.45-0.02,0.67-0.02c0.97,0,1.92,0.09,2.85,0.25c0.62-1.78,0.96-3.71,0.96-5.73c0-4.55-1.72-8.66-4.47-11.57
		c-2.59-2.74-6.09-4.42-9.96-4.42c-2.86,0-5.52,0.93-7.76,2.52c-4.01,2.84-6.67,7.82-6.67,13.48c0,2.05,0.35,4.01,0.98,5.81
		C12.28,43.39,12.85,43.31,13.43,43.25z"/>
	<path d="M86.82,46.6c1.54-2.54,2.44-5.61,2.44-8.9c0-8.83-6.46-16-14.43-16c-0.04,0-0.07,0-0.11,0v-0.23H35.34
		c2.4,1.7,4.38,4.18,5.72,7.17c0.07-0.01,0.14-0.01,0.21-0.01h13.87c1.05,0,1.9,0.85,1.9,1.9c0,1.05-0.85,1.9-1.9,1.9h-12.8
		c0.4,1.67,0.61,3.43,0.61,5.26c0,2.35-0.36,4.6-1,6.68c5.76,2.31,10.13,7.76,11.38,14.46h11.21c1.05,0,1.9,0.85,1.9,1.9
		c0,1.05-0.85,1.9-1.9,1.9H53.69c0,0.04,0,0.07,0,0.11c0,6.47-2.87,12.21-7.3,15.77h40.18v-0.04c7.5-0.57,13.42-7.49,13.42-15.95
		C100,54.16,94.2,47.3,86.82,46.6z M66.33,41.16c-1.05,0-1.9-0.85-1.9-1.9s0.85-1.9,1.9-1.9H80.2c1.05,0,1.9,0.85,1.9,1.9
		s-0.85,1.9-1.9,1.9H66.33z M92.95,66.22H79.08c-1.05,0-1.9-0.85-1.9-1.9c0-1.05,0.85-1.9,1.9-1.9h13.87c1.05,0,1.9,0.85,1.9,1.9
		C94.85,65.37,94,66.22,92.95,66.22z"/>
</g>
</svg>
