<?xml version="1.0" encoding="utf-8"?>
<!-- Generator: Adobe Illustrator 23.1.0, SVG Export Plug-In . SVG Version: 6.00 Build 0)  -->
<svg version="1.1" id="Layer_1" xmlns="http://www.w3.org/2000/svg" xmlns:xlink="http://www.w3.org/1999/xlink" x="0px" y="0px"
	 viewBox="0 0 100 100" style="enable-background:new 0 0 100 100;" xml:space="preserve">
<style type="text/css">
	.st0{fill:#1D1D1B;}
</style>
<g>
	<path class="st0" d="M92.55,12.64C83.62,3.7,66.32-0.12,49.21,0C32.09-0.12,14.79,3.7,5.86,12.64c0,0-3.36,41.22,8.4,57.26
		c9.03,12.32,15,18.51,34.95,30.1h0.01c19.94-11.59,25.92-17.77,34.95-30.1C95.92,53.86,92.55,12.64,92.55,12.64z M76.31,42.03
		L47.4,70.94c-1.48,1.48-3.87,1.48-5.35,0L25.16,54.05c-1.27-1.27-1.27-3.34,0-4.61l4.47-4.47c1.27-1.27,3.34-1.27,4.61,0
		l10.5,10.51l22.5-22.52c1.27-1.27,3.34-1.27,4.61,0l4.47,4.47C77.58,38.7,77.58,40.76,76.31,42.03z"/>
</g>
</svg>
