<?xml version="1.0" encoding="utf-8"?>
<!-- Generator: Adobe Illustrator 23.1.0, SVG Export Plug-In . SVG Version: 6.00 Build 0)  -->
<svg version="1.1" id="Layer_1" xmlns="http://www.w3.org/2000/svg" xmlns:xlink="http://www.w3.org/1999/xlink" x="0px" y="0px"
	 viewBox="0 0 100 100" style="enable-background:new 0 0 100 100;" xml:space="preserve">
<style type="text/css">
	.st0{fill:#1D1D1B;}
</style>
<g>
	<circle class="st0" cx="50" cy="21.68" r="21.68"/>
	<g>
		<path class="st0" d="M93.8,89.26c0-1.16-0.07-2.31-0.2-3.44v6.88C93.73,91.56,93.8,90.42,93.8,89.26z"/>
		<path class="st0" d="M91.87,100H7.84"/>
		<path class="st0" d="M93.6,92.7c-0.28,2.52-0.87,4.96-1.74,7.3"/>
		<path class="st0" d="M93.6,84.96h-0.11c0.04,0.29,0.08,0.57,0.11,0.86V84.96z"/>
		<path class="st0" d="M93.74,84.96C91.18,66.81,72.62,52.73,50.1,52.73c-24.27,0-43.95,16.35-43.95,36.52
			c0,1.65,0.13,3.28,0.39,4.87c0,0.02,0.01,0.04,0.01,0.06c0.55,3.36,3.49,5.81,6.89,5.81h73.44c3.35,0,6.2-2.42,6.75-5.73
			c0.09-0.52,0.16-1.05,0.22-1.58v-6.88C93.82,85.53,93.78,85.25,93.74,84.96z"/>
	</g>
</g>
</svg>
