<svg xmlns="http://www.w3.org/2000/svg" viewBox="0 0 100 93"><title>workload</title><g id="Layer_2" data-name="Layer 2"><g id="Layer_1-2" data-name="Layer 1"><rect x="11.09" width="3.11" height="8.95" rx="1.47"/><rect x="20.48" width="3.11" height="8.95" rx="1.47"/><rect x="29.86" width="3.11" height="8.95" rx="1.47"/><rect x="39.25" width="3.11" height="8.95" rx="1.47"/><rect x="48.64" width="3.11" height="8.95" rx="1.47"/><rect x="58.03" width="3.11" height="8.95" rx="1.47"/><rect x="67.41" width="3.11" height="8.95" rx="1.47"/><rect x="76.8" width="3.11" height="8.95" rx="1.47"/><rect x="86.19" width="3.11" height="8.95" rx="1.47"/><path d="M93.72,2.33H6.28A6.29,6.29,0,0,0,0,8.62V86.71A6.29,6.29,0,0,0,6.28,93H93.72A6.29,6.29,0,0,0,100,86.71V8.62A6.29,6.29,0,0,0,93.72,2.33Zm-70,76.91a2.87,2.87,0,0,1-2.87,2.86H14.15a2.87,2.87,0,0,1-2.87-2.86V72.51a2.87,2.87,0,0,1,2.87-2.86h6.72a2.87,2.87,0,0,1,2.87,2.86Zm0-21.79a2.87,2.87,0,0,1-2.87,2.86H14.15a2.87,2.87,0,0,1-2.87-2.86V50.72a2.87,2.87,0,0,1,2.87-2.86h6.72a2.87,2.87,0,0,1,2.87,2.86Zm0-21.79a2.87,2.87,0,0,1-2.87,2.86H14.15a2.87,2.87,0,0,1-2.87-2.86V28.93a2.87,2.87,0,0,1,2.87-2.86h6.72a2.87,2.87,0,0,1,2.87,2.86ZM45.53,79.24a2.87,2.87,0,0,1-2.87,2.86H35.94a2.86,2.86,0,0,1-2.87-2.86V72.51a2.86,2.86,0,0,1,2.87-2.86h6.72a2.87,2.87,0,0,1,2.87,2.86Zm0-21.79a2.87,2.87,0,0,1-2.87,2.86H35.94a2.86,2.86,0,0,1-2.87-2.86V50.72a2.86,2.86,0,0,1,2.87-2.86h6.72a2.87,2.87,0,0,1,2.87,2.86Zm0-21.79a2.87,2.87,0,0,1-2.87,2.86H35.94a2.86,2.86,0,0,1-2.87-2.86V28.93a2.86,2.86,0,0,1,2.87-2.86h6.72a2.87,2.87,0,0,1,2.87,2.86ZM89.11,79.24a2.87,2.87,0,0,1-2.87,2.86H57.72a2.86,2.86,0,0,1-2.86-2.86V50.72a2.86,2.86,0,0,1,2.86-2.86H86.24a2.87,2.87,0,0,1,2.87,2.86ZM54.86,35.66V28.93a2.86,2.86,0,0,1,2.86-2.86h6.73a2.87,2.87,0,0,1,2.87,2.86v6.73a2.87,2.87,0,0,1-2.87,2.86H57.72A2.86,2.86,0,0,1,54.86,35.66Zm34.25,0a2.87,2.87,0,0,1-2.87,2.86H79.51a2.86,2.86,0,0,1-2.86-2.86V28.93a2.86,2.86,0,0,1,2.86-2.86h6.73a2.87,2.87,0,0,1,2.87,2.86Zm7.78-20.48H3.5V9.36A3.52,3.52,0,0,1,7,5.84H93.36a3.52,3.52,0,0,1,3.53,3.52Z"/><path d="M80.63,59.18h0A1.47,1.47,0,0,0,78.56,59L69,67.36a.44.44,0,0,1-.63,0L64.57,63a1.46,1.46,0,0,0-2.07-.15h0a1.47,1.47,0,0,0-.15,2.07l5.11,5.79a1.32,1.32,0,0,0,1.86.13l11.16-9.57A1.47,1.47,0,0,0,80.63,59.18Z"/></g></g></svg>